<svg xmlns="http://www.w3.org/2000/svg" x="0px" y="0px" viewBox="5 5 518 110">
    <!-- C -->
    <!-- pt départ: (10,60)
            largeur: 60
            hauteur: 100
            espace après lettre: 20
    -->
    <path fill="pink" d="M10,60 q0,-50 50,-50 h10 l8,20 h-18 q-30,0 -30,30 q0,30 30,30 h40 v20 h-40 q-50,0 -50,-50 Z"/>

    <!-- Y -->
    <!-- pt départ: (90,10)
        largeur: 80
        hauteur: 100
        espace après lettre: 60
    -->
    <path fill="pink" d="M90,10 h20 l20,40 l20,-40 h20 l-30,60 v40 h-20 v-40 l-30,-60 Z"/>

    <!-- L -->
    <!-- pt départ: (230,10)
        largeur: 60
        hauteur: 100
        espace après lettre: 0
    -->
    <path fill="pink" d="M230,10 v100 h60 h20 l-20,-20 h-40 v-80 h-20 Z"/>

    <!-- coeur -->
    <!--pt départ: (290,30) ; pt plus à droite: (370,30)
        largeur: 95
        hauteur: 82.8554
        diamètre des arcs de cercle: 50 (chaque cercle empiette de 2.5 au milieu, dc une impression de 5)
        espace après lettre: 10
    -->
    <path fill="pink" d="M290,52.1446 q0,-25 25,-25 q25,0 25,25 h-5 q0,-25 25,-25 q25,0 25,25 q0,10.3553 -7.3223,17.6777 l-40.1777,40.1777 l-40.1777,-40.1777 q-7.3223,-7.3224 -7.3223,-17.6777 Z"/>

    <!-- v -->
    <!-- pt départ: (385,50) ; pt plus à droite: (453,50)
            largeur: 68
            hauteur: 60
            rapport: 4 cases avancees, 10 cases montees
            espace après lettre: 5
    -->
    <path fill="pink" d="M395,50 l24,60 h20 l24,-60 h-20 l-14,35 l-14,-35 h-20 Z"/>

    <!-- e -->
    <!-- pt départ: (508,110) ; pt plus à droite: (518,85)
            largeur: 50
            hauteur: 60
    -->
    <path fill="pink" d="M508,110 h-10 q-30,0 -30,-25 v-10 q0,-25 25,-25 q25,0 25,25      h-15 q0,-7.5 -7.5,-7.5 q-7.5,0 -7.5,7.5 h15 h15      v10 h-30 q0,5 5,5 h20 v20 h-5 Z"/>
</svg>